<svg width="34" height="33" viewBox="0 0 34 33" fill="none" xmlns="http://www.w3.org/2000/svg">
<path d="M6.2082 0C2.76913 0 0 2.68768 0 6.02559V26.9744C0 30.3123 2.76913 33 6.2082 33H17.9063V20.099H14.3916V15.4543H17.9063V11.4861C17.9063 8.36839 19.983 5.50584 24.7669 5.50584C26.7038 5.50584 28.1361 5.68632 28.1361 5.68632L28.0234 10.0238C28.0234 10.0238 26.5627 10.0104 24.9688 10.0104C23.2436 10.0104 22.967 10.7818 22.967 12.0626V15.4543H28.1605L27.9342 20.0991H22.967V33H27.7918C31.2309 33 34 30.3123 34 26.9744V6.02562C34 2.68771 31.2309 3.29999e-05 27.7918 3.29999e-05H6.20816L6.2082 0Z" fill="#C6C6C6"/>
</svg>
