<svg width="234" height="40" viewBox="0 0 234 40" fill="none" xmlns="http://www.w3.org/2000/svg">
<path d="M34.9308 0H5.03885C2.25597 0 0 2.25768 0 5.04267V34.9573C0 37.7423 2.25597 40 5.03885 40H34.9308C37.7137 40 39.9697 37.7423 39.9697 34.9573V5.04267C39.9697 2.25768 37.7137 0 34.9308 0Z" fill="white"/>
<path fill-rule="evenodd" clip-rule="evenodd" d="M28.3858 6.6627L23.5307 9.09208C22.3945 9.66056 21.6769 10.8227 21.6769 12.0944V28.4824L26.5309 26.0541C27.6673 25.4846 28.3858 24.3224 28.3858 23.0515V6.6627Z" fill="black"/>
<path fill-rule="evenodd" clip-rule="evenodd" d="M18.3226 20.9296L13.4674 23.359C12.3313 23.9275 11.6137 25.0896 11.6137 26.3614V33.5186L16.4677 31.0892C17.6039 30.5204 18.3226 29.3583 18.3226 28.0866V20.9296Z" fill="black"/>
<path fill-rule="evenodd" clip-rule="evenodd" d="M89.8092 -3.8147e-05L84.5008 2.65801C83.2566 3.28387 82.4702 4.55142 82.4702 5.94377V7.3501L87.7776 4.69205C89.0228 4.07085 89.8092 2.79771 89.8092 1.40629V-3.8147e-05Z" fill="white"/>
<path fill-rule="evenodd" clip-rule="evenodd" d="M62.4792 10.0227C61.234 10.642 60.4495 11.9142 60.4495 13.301V23.9965C60.4495 24.4687 60.4206 24.9437 60.3685 25.4168C60.1824 27.0094 59.2769 28.0553 57.6855 28.1549H50.6666V34.2002C50.7476 34.2002 55.1141 34.2049 55.1746 34.2049C56.6478 34.2049 58.1257 34.2254 59.6035 34.1937C60.603 34.1732 61.5951 34.0261 62.5667 33.7523C64.6234 33.1599 66.2027 31.9948 67.0747 29.9813C67.6265 28.6886 67.7875 27.3139 67.7875 25.9234V25.3767V25.2901V7.36369L62.4792 10.0227Z" fill="white"/>
<path fill-rule="evenodd" clip-rule="evenodd" d="M94.6963 7.34943H87.3647L82.4845 17.9248H82.4566L77.5763 7.34943H70.2373L78.802 25.9027V34.2856H86.1456V25.8766L94.6963 7.34943Z" fill="white"/>
<path fill-rule="evenodd" clip-rule="evenodd" d="M116.718 26.0422V25.7097H116.704C116.678 24.9432 116.544 24.1776 116.325 23.4093C115.998 22.3177 115.398 21.4236 114.56 20.7047C114.426 20.592 114.287 20.4783 114.14 20.3787C113.115 19.6439 111.963 19.1577 110.738 18.8792C109.033 18.4909 107.308 18.1789 105.589 17.8324C104.699 17.6517 103.381 17.4729 102.561 17.0529C102.035 16.7856 101.595 16.413 101.463 15.8337C101.348 15.3606 101.341 14.854 101.455 14.4339C101.694 13.6283 102.26 13.1552 103.3 12.9075C103.958 12.7538 104.778 12.6625 105.517 12.642C105.724 12.6355 105.93 12.6355 106.144 12.642H106.169C106.822 12.6672 107.468 12.7538 108.115 12.9075C109.512 13.24 110.065 13.9878 110.085 15.3997V15.9138H116.718C116.718 15.1669 116.724 14.6211 116.659 13.8938C116.431 11.6278 115.272 9.95606 113.242 8.84962C111.496 7.90245 109.579 7.56344 107.615 7.41629C107.042 7.37066 106.47 7.35575 105.896 7.34924H105.704H105.517C104.945 7.35575 104.373 7.37066 103.8 7.41629C101.834 7.56344 99.916 7.90245 98.172 8.84962C96.1404 9.95606 94.9827 11.6278 94.7556 13.8938C94.71 14.3473 94.7035 14.7329 94.7035 15.1483C94.6961 15.3792 94.7035 15.6205 94.7166 15.8542V15.9138C94.7622 16.6068 94.8887 17.2987 95.0944 17.9926C95.4155 19.0785 96.0139 19.9791 96.8524 20.7047C96.9873 20.8118 97.1269 20.9244 97.2749 21.025C98.2986 21.758 99.4507 22.2442 100.676 22.5245C102.381 22.9101 104.104 23.2239 105.823 23.5704C106.716 23.7511 108.121 23.9299 108.939 24.3499C109.466 24.6153 109.899 24.9897 110.039 25.57C110.092 25.7898 110.119 26.003 110.126 26.2163C110.119 26.4017 110.106 26.5684 110.079 26.7295C110.065 26.8031 110.059 26.8692 110.039 26.9428H110.045C109.839 27.8806 109.239 28.4432 108.115 28.7086C107.462 28.8688 106.637 28.961 105.896 28.9815C105.69 28.9889 105.477 28.9889 105.271 28.9815H105.243C104.592 28.9545 103.946 28.8688 103.3 28.7086C101.9 28.3808 101.348 27.6292 101.328 26.2228V25.7097H94.6961C94.6961 26.4547 94.6831 27.0024 94.7556 27.7288C94.9827 29.9948 96.1404 31.6665 98.172 32.7739C99.916 33.7192 101.834 34.0591 103.8 34.2054C104.373 34.2529 104.945 34.2668 105.517 34.2715H105.704H105.896C106.47 34.2668 107.042 34.2529 107.615 34.2054C109.579 34.0591 111.496 33.7192 113.242 32.7739C115.272 31.6665 116.431 29.9948 116.659 27.7288C116.718 27.1225 116.718 26.6429 116.718 26.0692V26.0422Z" fill="white"/>
<path fill-rule="evenodd" clip-rule="evenodd" d="M138.772 34.2784H146.111L135.096 7.34968H127.732L116.718 34.2784H124.054L125.554 30.608H137.267L138.772 34.2784ZM127.558 25.7092L131.414 16.2877L135.271 25.7092H127.558Z" fill="white"/>
<path fill-rule="evenodd" clip-rule="evenodd" d="M170.535 34.2784H171.753V7.34875H170.535V34.2784Z" fill="white"/>
<path fill-rule="evenodd" clip-rule="evenodd" d="M164.416 7.34943V22.5377C164.096 21.9771 155.859 7.34943 155.859 7.34943H148.52V34.2782H155.859V19.0843C155.946 19.238 164.115 33.739 164.416 34.2782H171.761V7.34943H164.416Z" fill="white"/>
<path d="M195.928 7.27063H203.522V34.1177H195.928V7.27063ZM185.573 34.1177H177.979V7.27063H185.573V34.1177ZM196.465 23.6473H185.036V17.3575H196.465V23.6473Z" fill="white"/>
<path d="M208.878 34.1177V7.27063H221.151C223.606 7.27063 225.715 7.66694 227.48 8.45957C229.269 9.2522 230.65 10.4028 231.622 11.9113C232.593 13.3943 233.079 15.1586 233.079 17.204C233.079 19.224 232.593 20.9754 231.622 22.4584C230.65 23.9158 229.269 25.0408 227.48 25.8335C225.715 26.6005 223.606 26.984 221.151 26.984H213.097L216.472 23.8007V34.1177H208.878ZM225.485 34.1177L218.812 24.3377H226.904L233.616 34.1177H225.485ZM216.472 24.6062L213.097 21.116H220.691C222.276 21.116 223.453 20.7709 224.22 20.0805C225.012 19.3902 225.409 18.4313 225.409 17.204C225.409 15.9512 225.012 14.9796 224.22 14.2892C223.453 13.5989 222.276 13.2537 220.691 13.2537H213.097L216.472 9.76357V24.6062Z" fill="white"/>
</svg>
