<svg width="213" height="37" viewBox="0 0 213 37" fill="none" xmlns="http://www.w3.org/2000/svg">
<path d="M31.8483 1.14441e-05H4.59419C2.05689 1.14441e-05 0 2.05846 0 4.59768V31.8724C0 34.4117 2.05689 36.4701 4.59419 36.4701H31.8483C34.3856 36.4701 36.4425 34.4117 36.4425 31.8724V4.59768C36.4425 2.05846 34.3856 1.14441e-05 31.8483 1.14441e-05Z" fill="#FE5000"/>
<path fill-rule="evenodd" clip-rule="evenodd" d="M25.8808 6.07473L21.4542 8.28972C20.4182 8.80803 19.764 9.8676 19.764 11.0271V25.9689L24.1897 23.7549C25.2257 23.2356 25.8808 22.176 25.8808 21.0172V6.07473Z" fill="white"/>
<path fill-rule="evenodd" clip-rule="evenodd" d="M16.7056 19.0826L12.2789 21.2976C11.2431 21.8159 10.5888 22.8755 10.5888 24.035V30.5606L15.0145 28.3456C16.0505 27.827 16.7056 26.7675 16.7056 25.6079V19.0826Z" fill="white"/>
<path fill-rule="evenodd" clip-rule="evenodd" d="M81.8837 1.33514e-05L77.0438 2.42349C75.9094 2.99412 75.1924 4.14982 75.1924 5.4193V6.70152L80.0314 4.27804C81.1667 3.71166 81.8837 2.55087 81.8837 1.28223V1.33514e-05Z" fill="#FE5000"/>
<path fill-rule="evenodd" clip-rule="evenodd" d="M56.9656 9.1382C55.8302 9.70288 55.115 10.8628 55.115 12.1272V21.8789C55.115 22.3094 55.0886 22.7425 55.0411 23.1738C54.8714 24.6259 54.0458 25.5795 52.5949 25.6703H46.1954V31.1822C46.2693 31.1822 50.2505 31.1864 50.3056 31.1864C51.6488 31.1864 52.9962 31.2051 54.3437 31.1762C55.255 31.1575 56.1595 31.0234 57.0453 30.7737C58.9205 30.2337 60.3604 29.1714 61.1555 27.3355C61.6587 26.1569 61.8054 24.9035 61.8054 23.6358V23.1373V23.0583V6.71387L56.9656 9.1382Z" fill="#FE5000"/>
<path fill-rule="evenodd" clip-rule="evenodd" d="M86.3395 6.70089H79.655L75.2054 16.343H75.18L70.7304 6.70089H64.039L71.8479 23.6168V31.2601H78.5434V23.5931L86.3395 6.70089Z" fill="#FE5000"/>
<path fill-rule="evenodd" clip-rule="evenodd" d="M106.418 23.744V23.4408H106.405C106.381 22.742 106.259 22.044 106.06 21.3434C105.762 20.3482 105.214 19.533 104.45 18.8775C104.329 18.7748 104.201 18.6712 104.067 18.5803C103.133 17.9103 102.083 17.4671 100.966 17.2132C99.4107 16.8591 97.8384 16.5746 96.2712 16.2587C95.4592 16.094 94.2577 15.9309 93.5101 15.548C93.0307 15.3043 92.6294 14.9646 92.5089 14.4364C92.4045 14.0051 92.3977 13.5431 92.5021 13.1602C92.7202 12.4256 93.2361 11.9943 94.1838 11.7684C94.7837 11.6283 95.5313 11.5451 96.205 11.5264C96.3942 11.5204 96.5817 11.5204 96.7769 11.5264H96.7998C97.3955 11.5493 97.9843 11.6283 98.574 11.7684C99.8476 12.0715 100.352 12.7534 100.37 14.0407V14.5095H106.418C106.418 13.8284 106.424 13.3308 106.364 12.6677C106.156 10.6017 105.1 9.07744 103.248 8.06865C101.657 7.20506 99.9087 6.89597 98.1184 6.7618C97.5957 6.72019 97.0739 6.70661 96.5512 6.70066H96.3755H96.205C95.684 6.70661 95.1622 6.72019 94.6395 6.7618C92.8474 6.89597 91.0987 7.20506 89.5086 8.06865C87.6563 9.07744 86.6007 10.6017 86.3937 12.6677C86.3521 13.0812 86.3462 13.4327 86.3462 13.8115C86.3394 14.022 86.3462 14.242 86.3581 14.4551V14.5095C86.3996 15.1412 86.515 15.7722 86.7026 16.4048C86.9953 17.3949 87.5409 18.216 88.3054 18.8775C88.4284 18.9752 88.5557 19.0779 88.6906 19.1696C89.624 19.8379 90.6744 20.2811 91.7919 20.5367C93.3464 20.8883 94.917 21.1745 96.4842 21.4903C97.2987 21.6551 98.58 21.8181 99.3258 22.2011C99.8061 22.4431 100.201 22.7844 100.328 23.3135C100.376 23.5139 100.401 23.7083 100.408 23.9028C100.401 24.0718 100.389 24.2238 100.364 24.3707C100.352 24.4377 100.347 24.498 100.328 24.5651H100.334C100.146 25.4202 99.599 25.9331 98.574 26.1751C97.9784 26.3212 97.2266 26.4052 96.5512 26.4239C96.3628 26.4307 96.1694 26.4307 95.981 26.4239H95.9555C95.3616 26.3993 94.7727 26.3212 94.1838 26.1751C92.9077 25.8762 92.4045 25.1909 92.3859 23.9087V23.4408H86.3394C86.3394 24.1202 86.3275 24.6195 86.3937 25.2818C86.6007 27.3478 87.6563 28.872 89.5086 29.8817C91.0987 30.7435 92.8474 31.0535 94.6395 31.1868C95.1622 31.2301 95.684 31.2428 96.205 31.2471H96.3755H96.5512C97.0739 31.2428 97.5957 31.2301 98.1184 31.1868C99.9087 31.0535 101.657 30.7435 103.248 29.8817C105.1 28.872 106.156 27.3478 106.364 25.2818C106.418 24.729 106.418 24.2917 106.418 23.7686V23.744Z" fill="#FE5000"/>
<path fill-rule="evenodd" clip-rule="evenodd" d="M126.525 31.2534H133.217L123.175 6.70107H116.46L106.418 31.2534H113.107L114.474 27.9069H125.153L126.525 31.2534ZM116.302 23.4404L119.817 14.8504L123.333 23.4404H116.302Z" fill="#FE5000"/>
<path fill-rule="evenodd" clip-rule="evenodd" d="M155.485 31.2534H156.596V6.70021H155.485V31.2534Z" fill="#FE5000"/>
<path fill-rule="evenodd" clip-rule="evenodd" d="M149.906 6.70088V20.5488C149.615 20.0377 142.105 6.70088 142.105 6.70088H135.414V31.2533H142.105V17.4002C142.184 17.5403 149.632 30.7616 149.906 31.2533H156.604V6.70088H149.906Z" fill="#FE5000"/>
<path d="M178.638 6.62898H185.562V31.1068H178.638V6.62898ZM169.196 31.1068H162.273V6.62898H169.196V31.1068ZM179.127 21.5605H168.707V15.8257H179.127V21.5605Z" fill="black"/>
<path d="M190.445 31.1068V6.62898H201.635C203.873 6.62898 205.797 6.99032 207.405 7.713C209.037 8.43568 210.296 9.48473 211.182 10.8602C212.068 12.2123 212.51 13.8208 212.51 15.6858C212.51 17.5275 212.068 19.1243 211.182 20.4765C210.296 21.8053 209.037 22.831 207.405 23.5537C205.797 24.253 203.873 24.6027 201.635 24.6027H194.292L197.369 21.7004V31.1068H190.445ZM205.587 31.1068L199.502 22.1899H206.881L213 31.1068H205.587ZM197.369 22.4347L194.292 19.2526H201.216C202.661 19.2526 203.733 18.9379 204.433 18.3084C205.155 17.679 205.517 16.8048 205.517 15.6858C205.517 14.5435 205.155 13.6576 204.433 13.0282C203.733 12.3988 202.661 12.084 201.216 12.084H194.292L197.369 8.90192V22.4347Z" fill="black"/>
</svg>
