<svg width="27" height="27" viewBox="0 0 27 27" fill="none" xmlns="http://www.w3.org/2000/svg">
<path d="M20.7485 26.9998C15.2478 26.9926 9.97452 24.8 6.08497 20.9027C2.19542 17.0054 0.00712983 11.7216 0 6.21006C0 4.56309 0.65296 2.98358 1.81524 1.81899C2.97751 0.654411 4.5539 0.000154296 6.1976 0.000154296C6.54567 -0.0025022 6.89315 0.0291496 7.23503 0.0946528C7.56554 0.143658 7.89045 0.225047 8.20509 0.337649C8.42638 0.415448 8.62357 0.549776 8.77717 0.727351C8.93076 0.904926 9.03543 1.1196 9.08084 1.35013L10.9266 9.45002C10.9764 9.66988 10.9704 9.89872 10.9092 10.1157C10.848 10.3326 10.7336 10.5308 10.5763 10.692C10.4012 10.881 10.3877 10.8945 8.73054 11.7585C10.0576 14.6756 12.386 17.0182 15.2919 18.3599C16.1677 16.6859 16.1811 16.6724 16.3698 16.4969C16.5307 16.3394 16.7284 16.2247 16.9449 16.1634C17.1615 16.1021 17.3899 16.0961 17.6093 16.1459L25.6931 17.9954C25.9158 18.0472 26.1217 18.1549 26.2914 18.3084C26.4611 18.4619 26.5891 18.6562 26.6632 18.8729C26.7769 19.1933 26.8625 19.523 26.9192 19.8584C26.9734 20.1976 27.0004 20.5407 27 20.8843C26.9751 22.5243 26.3038 24.0878 25.1326 25.2335C23.9613 26.3793 22.3853 27.0142 20.7485 26.9998Z" fill="#C6C6C6"/>
</svg>
